<svg width="94" height="94" xmlns="http://www.w3.org/2000/svg">

 <g>
  <title>background</title>
  <rect fill="none" id="canvas_background" height="402" width="582" y="-1" x="-1"/>
 </g>
 <g>
  <title>Layer 1</title>
  <path fill="#dddddd" id="svg_1" d="m86.75,70.981l0,-11.481c0,-6.934 -4.594,-17.25 -17.25,-17.25l-10,0c-7.06,0 -7.717,-3.464 -7.75,-5.25l0,-13.98c4.264,-1.842 7.25,-6.081 7.25,-11.02c0,-6.626 -5.373,-12 -12,-12c-6.627,0 -12,5.374 -12,12c0,4.939 2.986,9.178 7.25,11.02l0,13.98c0,1.294 -0.374,5.25 -7.75,5.25l-10,0c-12.656,0 -17.25,10.316 -17.25,17.25l0,11.481c-4.264,1.841 -7.25,6.081 -7.25,11.019c0,6.627 5.373,12 12,12c6.627,0 12,-5.373 12,-12c0,-4.938 -2.986,-9.178 -7.25,-11.019l0,-11.481c0,-1.294 0.374,-7.75 7.75,-7.75l10,0c3.035,0 5.595,-0.459 7.75,-1.237l0,20.469c-4.264,1.84 -7.25,6.08 -7.25,11.018c0,6.627 5.373,12 12,12c6.627,0 12,-5.373 12,-12c0,-4.938 -2.986,-9.178 -7.25,-11.019l0,-20.468c2.155,0.778 4.715,1.237 7.75,1.237l10,0c7.06,0 7.717,5.964 7.75,7.75l0,11.481c-4.264,1.841 -7.25,6.081 -7.25,11.019c0,6.627 5.373,12 12,12c6.627,0 12,-5.373 12,-12c0,-4.938 -2.986,-9.178 -7.25,-11.019zm-67.827,11.019c0,3.823 -3.101,6.923 -6.923,6.923c-3.823,0 -6.923,-3.1 -6.923,-6.923s3.1,-6.923 6.923,-6.923c3.822,0 6.923,3.1 6.923,6.923zm21.154,-70c0,-3.823 3.101,-6.923 6.923,-6.923c3.823,0 6.923,3.1 6.923,6.923s-3.1,6.923 -6.923,6.923c-3.822,0 -6.923,-3.1 -6.923,-6.923zm13.846,70c0,3.823 -3.1,6.923 -6.923,6.923c-3.822,0 -6.923,-3.1 -6.923,-6.923s3.101,-6.923 6.923,-6.923c3.823,0 6.923,3.1 6.923,6.923zm28.077,6.923c-3.822,0 -6.923,-3.1 -6.923,-6.923s3.101,-6.923 6.923,-6.923c3.823,0 6.923,3.1 6.923,6.923s-3.1,6.923 -6.923,6.923z"/>
 </g>
</svg>